<svg width="13" height="12" viewBox="0 0 13 12" fill="none" xmlns="http://www.w3.org/2000/svg">
<path fill-rule="evenodd" clip-rule="evenodd" d="M10.8891 7.14273L7.14292 7.14283V10.854C7.14292 11.4826 6.62864 11.9969 6.00007 11.9969C5.3715 11.9969 4.85721 11.4826 4.85721 10.854V7.14283H1.1453C0.516727 7.14283 0.00244141 6.62855 0.00244141 5.99997C0.00244141 5.3714 0.516727 4.85712 1.1453 4.85712H4.85721V1.15555C4.85721 0.526981 5.3715 0.0126953 6.00007 0.0126953C6.62864 0.0126953 7.14292 0.526981 7.14292 1.15555V4.85712L10.8891 4.85702C11.5177 4.85702 12.032 5.3713 12.032 5.99987C12.032 6.62845 11.5177 7.14273 10.8891 7.14273Z" fill="white"/>
</svg>
